<?xml version="1.0" encoding="UTF-8"?>
<svg version="1.1" xmlns="http://www.w3.org/2000/svg" width="292" height="292">
<path d="M0 0 C1.16523193 0.32145996 1.16523193 0.32145996 2.35400391 0.64941406 C22.94832233 6.52129485 41.78027659 17.04645458 58 31 C59.43279297 32.21429688 59.43279297 32.21429688 60.89453125 33.453125 C81.89514703 51.6798826 96.64892056 77.35371883 104 104 C104.31759277 105.13622803 104.31759277 105.13622803 104.64160156 106.29541016 C110.79263069 129.43244285 110.43348561 156.98339738 104 180 C103.67854004 181.16523193 103.67854004 181.16523193 103.35058594 182.35400391 C97.47870515 202.94832233 86.95354542 221.78027659 73 238 C72.19046875 238.95519531 71.3809375 239.91039062 70.546875 240.89453125 C52.3201174 261.89514703 26.64628117 276.64892056 0 284 C-0.75748535 284.21172852 -1.5149707 284.42345703 -2.29541016 284.64160156 C-25.43244285 290.79263069 -52.98339738 290.43348561 -76 284 C-77.16523193 283.67854004 -77.16523193 283.67854004 -78.35400391 283.35058594 C-98.94832233 277.47870515 -117.78027659 266.95354542 -134 253 C-134.95519531 252.19046875 -135.91039062 251.3809375 -136.89453125 250.546875 C-157.89514703 232.3201174 -172.64892056 206.64628117 -180 180 C-180.21172852 179.24251465 -180.42345703 178.4850293 -180.64160156 177.70458984 C-186.79263069 154.56755715 -186.43348561 127.01660262 -180 104 C-179.67854004 102.83476807 -179.67854004 102.83476807 -179.35058594 101.64599609 C-173.47870515 81.05167767 -162.95354542 62.21972341 -149 46 C-148.19046875 45.04480469 -147.3809375 44.08960938 -146.546875 43.10546875 C-128.3201174 22.10485297 -102.64628117 7.35107944 -76 0 C-75.24251465 -0.21172852 -74.4850293 -0.42345703 -73.70458984 -0.64160156 C-50.56755715 -6.79263069 -23.01660262 -6.43348561 0 0 Z " fill="#67A9E9" transform="translate(184,4)"/>
<path d="M0 0 C9.06374928 6.64674947 12.79089112 14.38860522 15.8125 25.0625 C16.04710937 25.88363281 16.28171875 26.70476562 16.5234375 27.55078125 C18.50019368 35.84456259 18.46127607 44.57766925 18.8125 53.0625 C20.82623217 50.59578104 22.68961472 48.28155637 24.25 45.5 C27.34581719 40.67052518 31.28888107 38.33718129 36.8125 37.0625 C42.76604902 36.44211189 47.61898901 36.82880448 52.8125 40.0625 C62.24730748 50.58508528 62.73944976 63.25509915 62.01953125 76.70214844 C60.79393107 90.67514674 52.44451409 102.93011579 44.83325195 114.30639648 C40.4655103 120.890402 38.79317401 126.18474606 39.8125 134.0625 C41.55393532 137.73886345 42.47257679 139.5600288 46.3125 141 C48.8267165 141.06285541 50.51461105 141.09258815 52.8125 140.0625 C53.121875 139.44375 53.43125 138.825 53.75 138.1875 C54.8125 136.0625 54.8125 136.0625 57.25 134.625 C60.87815728 132.41270898 62.36932105 129.86470997 63.37744141 125.76513672 C63.84255407 122.8758005 63.97253365 120.12111643 64.0234375 117.1953125 C65.00478365 74.87021635 65.00478365 74.87021635 77.8125 62.0625 C78.575625 61.175625 79.33875 60.28875 80.125 59.375 C85.24305905 54.97108873 90.97875735 53.40106277 97.703125 53.64453125 C102.25115497 54.54571497 104.68637021 57.59691482 107.4453125 61.1875 C109.32344192 65.13693787 109.34725566 68.54922421 109.3125 72.875 C109.30283203 74.13534058 109.30283203 74.13534058 109.29296875 75.42114258 C108.72791558 95.11436071 98.34310992 113.40209994 85.8125 128.0625 C84.91917969 129.10857422 84.91917969 129.10857422 84.0078125 130.17578125 C75.51232633 139.34196369 62.94085766 146.42612307 50.39453125 147.30078125 C39.53141993 147.51466634 31.25293448 145.7570229 22.625 138.81640625 C14.96378201 131.40285694 11.44538163 121.15521292 8.8125 111.0625 C8.93625 112.3 9.06 113.5375 9.1875 114.8125 C9.22083595 121.81304933 5.68451371 128.56130802 1.296875 133.91015625 C-0.1875 135.0625 -0.1875 135.0625 -3.125 135.125 C-7.05246658 133.76240955 -8.33389932 131.6015329 -10.1875 128.0625 C-11.36228349 125.15619248 -12.25921299 122.19872461 -13.125 119.1875 C-13.37515869 118.33414063 -13.62531738 117.48078125 -13.88305664 116.6015625 C-15.90745565 109.48324631 -17.57974013 102.29859791 -19.125 95.0625 C-19.34857178 94.03012207 -19.57214355 92.99774414 -19.80249023 91.93408203 C-20.09941772 90.48171143 -20.09941772 90.48171143 -20.40234375 89 C-20.57886475 88.14277344 -20.75538574 87.28554687 -20.93725586 86.40234375 C-21.36831428 82.37184238 -20.43277596 80.43041394 -18.1875 77.0625 C-18.63738281 77.53300781 -19.08726563 78.00351563 -19.55078125 78.48828125 C-26.42143968 85.13863801 -33.41277135 87.13909956 -42.875 87.375 C-47.57051949 87.24681772 -51.69890144 86.41754862 -56.1875 85.0625 C-56.04441406 85.80886719 -55.90132812 86.55523437 -55.75390625 87.32421875 C-53.43550617 102.62565927 -52.98364992 118.27353245 -52.88894653 133.73348999 C-52.87969134 135.19611411 -52.8656367 136.65871618 -52.84664917 138.12124634 C-52.82287898 140.18271377 -52.82021139 142.24310815 -52.82421875 144.3046875 C-52.82123779 145.4891748 -52.81825684 146.67366211 -52.81518555 147.89404297 C-53.22550525 151.38593093 -54.06603963 153.28190474 -56.1875 156.0625 C-58.4375 156.75 -58.4375 156.75 -61.1875 156.0625 C-66.96561002 152.11143887 -71.01971057 146.74493717 -75.0625 141.125 C-75.67037354 140.28815674 -76.27824707 139.45131348 -76.90454102 138.58911133 C-82.11766373 131.32612491 -86.88526302 123.89769979 -91.1875 116.0625 C-92.10595703 114.39380859 -92.10595703 114.39380859 -93.04296875 112.69140625 C-100.76963359 97.93739943 -105.94283456 82.36735144 -109.1875 66.0625 C-109.52587891 64.43828125 -109.52587891 64.43828125 -109.87109375 62.78125 C-111.05947053 56.29025405 -111.38386967 49.89498416 -111.4375 43.3125 C-111.45151855 42.14195068 -111.45151855 42.14195068 -111.46582031 40.94775391 C-111.41304689 31.35719836 -109.76302341 24.22251438 -103.1875 17.0625 C-97.80846404 12.19575318 -93.89646367 10.64376884 -86.71484375 10.8125 C-80.55406494 11.42191243 -75.29705086 14.5072042 -71.1875 19.0625 C-62.39579525 31.3065571 -57.65218981 48.96528316 -59.1875 64.0625 C-60.6875 66.625 -60.6875 66.625 -62.1875 68.0625 C-53.84429181 59.90891018 -43.8777136 55.9683759 -32.1875 56.0625 C-28.5 56.5 -28.5 56.5 -26.1875 57.0625 C-26.34734375 55.86496094 -26.5071875 54.66742188 -26.671875 53.43359375 C-27.38101671 47.00479668 -27.41007525 40.58695659 -27.4375 34.125 C-27.458125 32.91392578 -27.47875 31.70285156 -27.5 30.45507812 C-27.54381452 20.33939981 -26.06582211 11.46010302 -20.1875 3.0625 C-14.45281295 -2.39244622 -7.26149118 -2.1357327 0 0 Z " fill="#C790F2" transform="translate(141.1875,53.9375)"/>
<path d="M0 0 C9.43480748 10.52258528 9.92694976 23.19259915 9.20703125 36.63964844 C7.98143107 50.61264674 -0.36798591 62.86761579 -7.97924805 74.24389648 C-12.3469897 80.827902 -14.01932599 86.12224606 -13 94 C-11.25856468 97.67636345 -10.33992321 99.4975288 -6.5 100.9375 C-3.9857835 101.00035541 -2.29788895 101.03008815 0 100 C0.309375 99.38125 0.61875 98.7625 0.9375 98.125 C2 96 2 96 4.4375 94.5625 C8.06565728 92.35020898 9.55682105 89.80220997 10.56494141 85.70263672 C11.03005407 82.8133005 11.16003365 80.05861643 11.2109375 77.1328125 C12.19228365 34.80771635 12.19228365 34.80771635 25 22 C26.1446875 20.6696875 26.1446875 20.6696875 27.3125 19.3125 C32.43055905 14.90858873 38.16625735 13.33856277 44.890625 13.58203125 C49.43865497 14.48321497 51.87387021 17.53441482 54.6328125 21.125 C56.51094192 25.07443787 56.53475566 28.48672421 56.5 32.8125 C56.49355469 33.65272705 56.48710937 34.4929541 56.48046875 35.35864258 C55.91541558 55.05186071 45.53060992 73.33959994 33 88 C32.40445313 88.69738281 31.80890625 89.39476562 31.1953125 90.11328125 C22.69982633 99.27946369 10.12835766 106.36362307 -2.41796875 107.23828125 C-13.28108007 107.45216634 -21.55956552 105.6945229 -30.1875 98.75390625 C-38.27476224 90.92808568 -43.65728611 78.22513344 -44.125 67 C-44.08375 66.34 -44.0425 65.68 -44 65 C-44.66 65 -45.32 65 -46 65 C-46.61559655 46.09645062 -47.21122891 26.01203097 -33.375 11.1875 C-32.59125 10.465625 -31.8075 9.74375 -31 9 C-30.34 7.989375 -29.68 6.97875 -29 5.9375 C-22.42078363 -3.72572404 -9.90069313 -6.16458252 0 0 Z " fill="#FA7EAF" transform="translate(194,94)"/>
<path d="M0 0 C3.875 0.875 3.875 0.875 5 2 C5.10068462 4.42827613 5.1387176 6.82198411 5.125 9.25 C5.12886719 9.91902344 5.13273437 10.58804688 5.13671875 11.27734375 C5.13128174 14.04477976 5.06929773 16.6683293 4.50219727 19.38256836 C0.80077599 38.67422487 4.50460729 60.43304211 10 79 C9.34 79 8.68 79 8 79 C-1.41898211 58.28471289 -11.76705708 30.51182211 -4.6875 7.625 C-3.33397545 4.71742874 -2.153692 2.35880553 0 0 Z " fill="#FBF8FD" transform="translate(43,79)"/>
<path d="M0 0 C1.9375 0.8125 1.9375 0.8125 4 2 C7.63674796 12.91024388 4.26609344 23.9999177 -0.390625 33.98046875 C-3.2516076 39.55938482 -6.18899462 43.95438184 -11 48 C-11.66 48 -12.32 48 -13 48 C-9 32 -9 32 -8.45898438 30.04101562 C-7.95912902 27.81825457 -7.7912 25.7282285 -7.68359375 23.453125 C-7.64169922 22.60878906 -7.59980469 21.76445312 -7.55664062 20.89453125 C-7.51732422 20.02183594 -7.47800781 19.14914063 -7.4375 18.25 C-7.39431641 17.36183594 -7.35113281 16.47367188 -7.30664062 15.55859375 C-7.20086385 13.37254037 -7.09877454 11.18637911 -7 9 C-6.36449219 8.73316406 -5.72898438 8.46632813 -5.07421875 8.19140625 C-2.0544788 6.45690402 -1.89884222 4.24966032 -1 1 C-0.67 0.67 -0.34 0.34 0 0 Z " fill="#FEB653" transform="translate(192,117)"/>
<path d="M0 0 C3.38256721 1.39197329 4.83688682 2.8025496 6.6875 5.9375 C7.10386719 6.62714844 7.52023438 7.31679687 7.94921875 8.02734375 C12.19199435 15.99240575 10.70892203 28.092533 8.30078125 36.50390625 C3.56933021 49.22056895 -2.28957771 61.53221181 -11 72 C-11.4640625 72.62390625 -11.928125 73.2478125 -12.40625 73.890625 C-20.02143381 83.71952504 -32.56853162 92.17720405 -45 94 C-65.99295349 95.17253876 -65.99295349 95.17253876 -73.625 88.8125 C-74.07875 88.214375 -74.5325 87.61625 -75 87 C-69 89 -69 89 -66.2421875 90.05078125 C-54.71175868 93.4265574 -43.09029044 90.65810611 -32.625 85.5 C-14.01186942 74.80007889 -2.13493519 55.162147 4.5 35.1875 C6.81164996 26.10750558 8.37713621 14.64741608 4.6484375 5.7890625 C3.22674255 3.65315113 1.81946714 1.8032219 0 0 Z " fill="#3D3C4A" transform="translate(243,109)"/>
<path d="M0 0 C2 2 2 2 2.5625 4.75 C1.72061925 9.61419989 -1.09115805 11.23877179 -5 14 C-5.80695313 14.52207031 -6.61390625 15.04414062 -7.4453125 15.58203125 C-17.47471501 22.13028029 -22.87866597 30.45792417 -26 42 C-26.5018931 44.69235875 -26.79348488 47.26367465 -27 50 C-27.33 50 -27.66 50 -28 50 C-28.57828607 34.51478407 -27.08789754 20.81042049 -16.625 8.75 C-7.44560838 -1.01531023 -7.44560838 -1.01531023 0 0 Z " fill="#FEF9FB" transform="translate(183,100)"/>
<path d="M0 0 C0 0.99 0 1.98 0 3 C-0.5053125 3.44730469 -1.010625 3.89460937 -1.53125 4.35546875 C-3.25753604 5.92634266 -3.25753604 5.92634266 -3.03125 8.36328125 C-2.3909444 11.91791898 -1.7358171 15.46401176 -1 19 C-0.82903809 19.83692383 -0.65807617 20.67384766 -0.48193359 21.53613281 C1.71788979 32.15242332 4.1520946 42.43458408 8.1796875 52.515625 C9 55 9 55 8 57 C5.04352681 50.7775787 2.78702203 44.56939297 0.9375 37.9375 C0.68145996 37.03298096 0.42541992 36.12846191 0.16162109 35.1965332 C-2.04782616 27.20469106 -3.68033296 19.18425085 -5 11 C-7.95251505 10.81214745 -7.95251505 10.81214745 -10.3125 11.9375 C-15.89326977 14.14385084 -21.46963893 14.13191202 -27.375 14.0625 C-28.11105469 14.05798828 -28.84710938 14.05347656 -29.60546875 14.04882812 C-31.40368158 14.03715142 -33.20185197 14.01922011 -35 14 C-34.859247 18.27101628 -34.71145337 22.54176247 -34.5625 26.8125 C-34.52318359 28.00810547 -34.48386719 29.20371094 -34.44335938 30.43554688 C-34.2515935 35.84924506 -34.01756597 41.22972549 -33.48046875 46.62109375 C-32.90605422 52.49953879 -32.77981717 58.3462005 -32.75 64.25 C-32.729375 65.28640625 -32.70875 66.3228125 -32.6875 67.390625 C-32.65685405 73.39723186 -33.10167076 77.70103443 -36 83 C-36.495 83.495 -36.495 83.495 -37 84 C-43.39431616 83.64476021 -43.39431616 83.64476021 -45.9375 80.9375 C-46.4634375 79.9784375 -46.4634375 79.9784375 -47 79 C-44.36 79.33 -41.72 79.66 -39 80 C-36.78393532 76.43107955 -36.74224912 73.49260038 -36.734375 69.33984375 C-36.73173645 68.68563446 -36.7290979 68.03142517 -36.72637939 67.35739136 C-36.7225392 65.21723664 -36.73525318 63.07760194 -36.75 60.9375 C-36.75177246 60.20767914 -36.75354492 59.47785828 -36.75537109 58.72592163 C-36.79367827 45.25008224 -37.62964999 31.91951442 -38.8125 18.49462891 C-39.02581227 15.65657585 -39.07861673 12.84494276 -39 10 C-37.906875 10.165 -36.81375 10.33 -35.6875 10.5 C-25.11397486 11.74285296 -13.50419918 11.98762072 -4.62109375 5.17578125 C-2.95668529 3.51809768 -1.43502095 1.85769985 0 0 Z " fill="#555377" transform="translate(124,129)"/>
<path d="M0 0 C4.70588235 0.70588235 4.70588235 0.70588235 6 2 C6.38410419 6.53242942 6.48408723 9.03182554 4.4375 13.125 C2.02039427 15.97594522 -0.49633561 18.19538347 -3.3828125 20.54296875 C-5.4703273 22.42374899 -6.74960126 24.49920251 -8 27 C-8.7425 25.9790625 -8.7425 25.9790625 -9.5 24.9375 C-11.66423127 22.39452826 -13.65184686 20.66574795 -16.25 18.625 C-19.30222309 16.01124926 -19.91580675 15.41395017 -20.75 11.3125 C-19.9031678 7.57232444 -19.18605074 6.12403382 -16 4 C-13.9375 4 -13.9375 4 -12 5 C-9.61579539 7.55450494 -9 8.4404523 -9 12 C-8.34 12 -7.68 12 -7 12 C-6.9071875 10.6696875 -6.9071875 10.6696875 -6.8125 9.3125 C-5.81397923 5.24160762 -4.10938685 3.72071349 -1 1 C-0.67 0.67 -0.34 0.34 0 0 Z " fill="#F2E575" transform="translate(265,72)"/>
<path d="M0 0 C2.3125 0.4375 2.3125 0.4375 4.3125 2.4375 C5.19772922 8.96606548 5.19772922 8.96606548 3.14453125 12.37890625 C0.84328845 15.11791761 -1.56699117 17.34221395 -4.375 19.5625 C-6.89748528 21.60775834 -8.18164329 23.58429782 -9.6875 26.4375 C-10.739375 25.3546875 -10.739375 25.3546875 -11.8125 24.25 C-13.76504869 22.28629389 -15.78762879 20.49482301 -17.9375 18.75 C-20.6875 16.4375 -20.6875 16.4375 -21.6875 14.4375 C-22.14258982 8.18001497 -22.14258982 8.18001497 -20.5 5.5 C-17.99969126 4.03430177 -16.53619344 3.93897865 -13.6875 4.4375 C-11.875 6.1875 -11.875 6.1875 -10.6875 8.4375 C-10.6875 9.7575 -10.6875 11.0775 -10.6875 12.4375 C-10.0275 12.4375 -9.3675 12.4375 -8.6875 12.4375 C-8.5946875 10.8596875 -8.5946875 10.8596875 -8.5 9.25 C-7.42001096 4.1823591 -5.36019013 0.87258909 0 0 Z " fill="#F0E57A" transform="translate(47.6875,197.5625)"/>
<path d="M0 0 C5.40095015 4.3507654 6.95108534 9.51177023 9 16 C9.33 16.99 9.66 17.98 10 19 C11.60148741 41.29763235 3.77819536 57.47759661 -9 75 C-12.92184129 80.69299543 -13.14426385 87.30295191 -12 94 C-10.13850806 96.39026357 -8.88411974 96.85836927 -6 98 C-7.485 98.495 -7.485 98.495 -9 99 C-12.43500632 96.73792266 -14.44367883 94.78358968 -16 91 C-18.2422068 79.09905623 -10.35524336 69.37596555 -4.19116211 59.93725586 C-1.45141853 55.738498 1.1418053 51.6642564 3 47 C3.29648438 46.26652344 3.59296875 45.53304687 3.8984375 44.77734375 C7.64605857 33.65481701 7.81091247 18.99013961 3.94921875 7.875 C3.01065497 5.88344326 3.01065497 5.88344326 1.39453125 3.875 C0 2 0 2 0 0 Z " fill="#3C3B48" transform="translate(196,97)"/>
<path d="M0 0 C3.81531837 -0.44364167 5.48609366 -0.37931182 8.625 1.9375 C16.05432305 11.51741657 18.7128112 24.06701251 18 36 C16.515 35.505 16.515 35.505 15 35 C14.0859375 32.85546875 14.0859375 32.85546875 13.375 30.1875 C13.13523438 29.31480469 12.89546875 28.44210938 12.6484375 27.54296875 C12.24230248 25.95023442 11.86730068 24.34887369 11.5390625 22.73828125 C11.36117187 22.16464844 11.18328125 21.59101562 11 21 C10.34 20.67 9.68 20.34 9 20 C9 23.3 9 26.6 9 30 C8.01 30 7.02 30 6 30 C5.92483154 29.33991943 5.84966309 28.67983887 5.7722168 27.99975586 C5.42170333 24.97760387 5.05474303 21.95766284 4.6875 18.9375 C4.56955078 17.89916016 4.45160156 16.86082031 4.33007812 15.79101562 C3.61321982 10.00100628 2.64137424 5.2161592 0 0 Z " fill="#FBB55A" transform="translate(134,60)"/>
<path d="M0 0 C0.33 0 0.66 0 1 0 C1.52850077 34.77941636 1.52850077 34.77941636 -2.44140625 39.8359375 C-4 41 -4 41 -6.125 40.75 C-8 40 -8 40 -9 39 C-9.67414208 32.14301199 -7.54864248 26.02664411 -5.625 19.5 C-5.30789062 18.39785156 -4.99078125 17.29570312 -4.6640625 16.16015625 C-3.78367835 13.10448961 -2.89250747 10.05214208 -2 7 C-1.32933991 4.66777711 -0.66401806 2.33412407 0 0 Z " fill="#F9F6FA" transform="translate(147,135)"/>
<path d="M0 0 C0.66 0 1.32 0 2 0 C2.226875 1.155 2.45375 2.31 2.6875 3.5 C5.25684584 13.56474784 12.62400499 20.47018798 20.4375 26.875 C23 29 23 29 24 31 C24.039992 32.99960012 24.04346799 35.00047242 24 37 C17.53008993 36.43376684 15.32024027 33.87903248 11.25 29.09375 C5.2978839 20.90959036 -0.62735134 10.35129703 0 0 Z " fill="#FBB559" transform="translate(57,161)"/>
<path d="M0 0 C3.90313457 0 6.00013396 0.12388948 8.98828125 2.7421875 C15.3364648 9.91839499 15.47628224 15.58511852 15 25 C14.52390257 27.79034493 13.84934261 30.29272042 13 33 C12.67 33 12.34 33 12 33 C11.90203125 32.0821875 11.8040625 31.164375 11.703125 30.21875 C10.31985181 18.86637006 8.53870922 12.54989367 -0.390625 5.25 C-0.92171875 4.8375 -1.4528125 4.425 -2 4 C-1.34 2.68 -0.68 1.36 0 0 Z " fill="#53E9DC" transform="translate(232,112)"/>
<path d="M0 0 C1.32 0.33 2.64 0.66 4 1 C3.77210211 12.39489442 -3.04366845 23.2129521 -11 31 C-11.66 30.67 -12.32 30.34 -13 30 C-12.44570312 28.96101563 -11.89140625 27.92203125 -11.3203125 26.8515625 C-6.01846103 16.90915425 -6.01846103 16.90915425 -3.44921875 6.015625 C-2.88062735 3.46438009 -1.66429114 1.9810865 0 0 Z " fill="#FEF5F8" transform="translate(234,150)"/>
<path d="M0 0 C0.66 0 1.32 0 2 0 C3.1156351 6.33392831 3.21859662 12.57800894 3.25 19 C3.270625 20.05445313 3.29125 21.10890625 3.3125 22.1953125 C3.34292186 28.26447268 2.94215384 32.65062938 0 38 C-0.495 38.495 -0.495 38.495 -1 39 C-7.39431616 38.64476021 -7.39431616 38.64476021 -9.9375 35.9375 C-10.4634375 34.9784375 -10.4634375 34.9784375 -11 34 C-8.36 34.33 -5.72 34.66 -3 35 C-0.69911556 31.33473146 -0.69087811 28.09570961 -0.5859375 23.828125 C-0.56657135 23.1457074 -0.5472052 22.46328979 -0.5272522 21.76019287 C-0.46768902 19.59025392 -0.42116554 17.42026123 -0.375 15.25 C-0.33679869 13.77471703 -0.2977457 12.29945585 -0.2578125 10.82421875 C-0.16200765 7.21634582 -0.07789084 3.60830917 0 0 Z " fill="#41455D" transform="translate(88,174)"/>
<path d="M0 0 C0.33 0 0.66 0 1 0 C1.69761537 2.60183588 2.38337774 5.20583602 3.0625 7.8125 C3.26166016 8.55048828 3.46082031 9.28847656 3.66601562 10.04882812 C5.11328125 15.66015625 5.11328125 15.66015625 4 19 C3.34 19.99 2.68 20.98 2 22 C1.37544922 23.21042969 1.37544922 23.21042969 0.73828125 24.4453125 C-3.09561663 31.65093975 -3.09561663 31.65093975 -7.5625 33.375 C-11.5922259 32.93539354 -13.16811619 31.83188381 -16 29 C-15.67 28.34 -15.34 27.68 -15 27 C-13.515 27.99 -13.515 27.99 -12 29 C-9.51400388 29.30615946 -9.51400388 29.30615946 -7 28 C-1.82613492 21.62532382 0.32811256 15.35106244 0.125 7.1875 C0.11597656 6.49462891 0.10695312 5.80175781 0.09765625 5.08789062 C0.07426157 3.39177605 0.03839641 1.69584129 0 0 Z " fill="#474256" transform="translate(149,159)"/>
<path d="M0 0 C3.38256721 1.39197329 4.83688682 2.8025496 6.6875 5.9375 C7.31205078 6.97197266 7.31205078 6.97197266 7.94921875 8.02734375 C12.58731637 16.73455304 10.22705019 28.86883754 7.65625 37.90234375 C7.4396875 38.59457031 7.223125 39.28679687 7 40 C6.01 40 5.02 40 4 40 C3 38 3 38 3.55859375 36.28515625 C3.84863281 35.55167969 4.13867188 34.81820312 4.4375 34.0625 C7.10490262 25.51185423 8.16200069 14.17626832 4.65234375 5.7734375 C3.2265677 3.64994125 1.81408952 1.79789229 0 0 Z " fill="#524659" transform="translate(243,109)"/>
<path d="M0 0 C7.54422562 9.21595743 8.32773126 22.59816768 10 34 C10.99 33.505 10.99 33.505 12 33 C10.55140574 36.38005327 8.62669829 38.4587228 6 41 C5.97421875 39.82566406 5.9484375 38.65132812 5.921875 37.44140625 C5.56282292 26.14307652 3.88849198 15.90405721 1 5 C0.65072969 3.33660013 0.30972329 1.67121524 0 0 Z " fill="#4A4760" transform="translate(153,67)"/>
<path d="M0 0 C3 1 3 1 3.9831543 2.6105957 C4.26070557 3.29210693 4.53825684 3.97361816 4.82421875 4.67578125 C5.13037109 5.42150391 5.43652344 6.16722656 5.75195312 6.93554688 C6.06068359 7.71994141 6.36941406 8.50433594 6.6875 9.3125 C7.00783203 10.08529297 7.32816406 10.85808594 7.65820312 11.65429688 C9.19229592 15.4584545 10 17.79957383 10 22 C5.30650966 20.15863065 4.12354978 17.20668758 2.0390625 12.8203125 C0.48204827 8.59413102 0.10480393 4.47798624 0 0 Z " fill="#5AE5DB" transform="translate(158,165)"/>
<path d="M0 0 C3.37885704 1.68942852 3.78600536 5.18980752 4.98046875 8.62109375 C7.57099096 17.20654093 9.5508221 26.00323898 9 35 C9.66 35.33 10.32 35.66 11 36 C8.69 37.98 6.38 39.96 4 42 C3.34 41.67 2.68 41.34 2 41 C2.66 40.525625 3.32 40.05125 4 39.5625 C6.91929781 35.82214968 6.33790393 32.60725817 6 28 C5.52069272 24.61113733 4.84666595 21.28224255 4.125 17.9375 C3.95097656 17.09123047 3.77695313 16.24496094 3.59765625 15.37304688 C2.52370583 10.21410727 1.30989675 5.10387699 0 0 Z " fill="#45445C" transform="translate(75,81)"/>
<path d="M0 0 C1.46373047 0.01353516 1.46373047 0.01353516 2.95703125 0.02734375 C4.06111328 0.04474609 4.06111328 0.04474609 5.1875 0.0625 C5.1875 1.0525 5.1875 2.0425 5.1875 3.0625 C1.86150067 4.17116644 -0.9382542 4.31322108 -4.4375 4.5 C-10.11108692 4.86489874 -15.31553151 5.64087022 -20.8125 7.0625 C-14.31702906 1.81615809 -8.25177174 -0.09941894 0 0 Z " fill="#F9F5FD" transform="translate(110.8125,115.9375)"/>
<path d="M0 0 C0.33 0 0.66 0 1 0 C1.08160748 1.89510699 1.13946459 3.79124504 1.1875 5.6875 C1.22230469 6.74324219 1.25710937 7.79898438 1.29296875 8.88671875 C0.96666615 12.35422768 -0.00969875 14.18432448 -2 17 C-8.52307692 16.50769231 -8.52307692 16.50769231 -10.9375 13.9375 C-11.288125 13.298125 -11.63875 12.65875 -12 12 C-9.36 12.33 -6.72 12.66 -4 13 C-2.30844207 10.29350731 -1.7849434 7.9338867 -1.4375 4.8125 C-1 1 -1 1 0 0 Z " fill="#323845" transform="translate(89,196)"/>
<path d="M0 0 C6.41294857 5.16598634 8.7239145 12.6783326 9.75 20.6875 C9.87375 22.3271875 9.87375 22.3271875 10 24 C9.34 24 8.68 24 8 24 C8 26.64 8 29.28 8 32 C7.67 32 7.34 32 7 32 C6.94392578 30.44152344 6.94392578 30.44152344 6.88671875 28.8515625 C6.26747742 14.56734158 6.26747742 14.56734158 0 2 C0 1.34 0 0.68 0 0 Z " fill="#5A475C" transform="translate(196,97)"/>
<path d="M0 0 C2.56957445 1.20448802 3.57005516 2.50659376 5 4.9375 C5 5.9275 5 6.9175 5 7.9375 C5.66 7.9375 6.32 7.9375 7 7.9375 C7 10.5775 7 13.2175 7 15.9375 C4.25207517 12.53530735 1 8.45285412 1 3.9375 C0.34 3.9375 -0.32 3.9375 -1 3.9375 C-1 3.2775 -1 2.6175 -1 1.9375 C-2.32 2.2675 -3.64 2.5975 -5 2.9375 C-2.58536585 -0.08079268 -2.58536585 -0.08079268 0 0 Z " fill="#CFC972" transform="translate(251,76.0625)"/>
<path d="M0 0 C0.66 0 1.32 0 2 0 C2.21432579 6.64409958 1.51233701 12.53205867 0 19 C-0.99 19 -1.98 19 -3 19 C-2.01 12.73 -1.02 6.46 0 0 Z " fill="#353945" transform="translate(204,121)"/>
<path d="M0 0 C0 3 0 3 -1.4375 4.5 C-1.953125 4.995 -2.46875 5.49 -3 6 C-3.33 6.99 -3.66 7.98 -4 9 C-5.99609375 10.203125 -5.99609375 10.203125 -8.4375 11.25 C-9.24058594 11.60578125 -10.04367188 11.9615625 -10.87109375 12.328125 C-13 13 -13 13 -15 12 C-15.33 11.34 -15.66 10.68 -16 10 C-15.43152344 9.86464844 -14.86304687 9.72929687 -14.27734375 9.58984375 C-7.88691724 7.80820564 -4.27581429 5.01823863 0 0 Z " fill="#4F4C6A" transform="translate(124,129)"/>
<path d="M0 0 C-1 2 -1 2 -2.640625 2.62109375 C-5.70271988 3.11285402 -8.64996953 3.0935003 -11.75 3.0625 C-12.92046875 3.05347656 -14.0909375 3.04445312 -15.296875 3.03515625 C-16.18890625 3.02355469 -17.0809375 3.01195312 -18 3 C-18 2.34 -18 1.68 -18 1 C-16.12528812 0.83012319 -14.25021305 0.66425224 -12.375 0.5 C-11.33085938 0.4071875 -10.28671875 0.314375 -9.2109375 0.21875 C-6.12853212 0.00875645 -3.08834771 -0.03709727 0 0 Z " fill="#313744" transform="translate(110,140)"/>
<path d="M0 0 C0.33 0.66 0.66 1.32 1 2 C1.66 2 2.32 2 3 2 C2.34 5.3 1.68 8.6 1 12 C0.01 12 -0.98 12 -2 12 C-3.40907283 9.18185434 -2.50872691 7.82722796 -1.5625 4.875 C-1.27503906 3.96492187 -0.98757812 3.05484375 -0.69140625 2.1171875 C-0.46324219 1.41851562 -0.23507813 0.71984375 0 0 Z " fill="#4C4456" transform="translate(249,137)"/>
<path d="M0 0 C2.3125 -0.25 2.3125 -0.25 5 0 C6.875 1.75 6.875 1.75 8 4 C7.6875 6.25 7.6875 6.25 7 8 C6.566875 7.54625 6.13375 7.0925 5.6875 6.625 C3.89201658 4.79975666 3.89201658 4.79975666 1 3 C1.33 2.34 1.66 1.68 2 1 C1.34 0.67 0.68 0.34 0 0 Z " fill="#DAD26F" transform="translate(29,202)"/>
<path d="M0 0 C2.64 0.33 5.28 0.66 8 1 C7.67 1.99 7.34 2.98 7 4 C6.01 4 5.02 4 4 4 C3.34 5.32 2.68 6.64 2 8 C0 6 0 6 -0.125 2.875 C-0.08375 1.92625 -0.0425 0.9775 0 0 Z " fill="#414359" transform="translate(85,139)"/>
<path d="M0 0 C0.66 0 1.32 0 2 0 C2.33 4.62 2.66 9.24 3 14 C2.34 14 1.68 14 1 14 C-0.38226016 11.23547967 -0.09525387 8.9538637 -0.0625 5.875 C-0.05347656 4.77929688 -0.04445313 3.68359375 -0.03515625 2.5546875 C-0.02355469 1.71164063 -0.01195313 0.86859375 0 0 Z " fill="#363B4B" transform="translate(87,160)"/>
<path d="M0 0 C0.66 0 1.32 0 2 0 C2 0.66 2 1.32 2 2 C2.66 2 3.32 2 4 2 C5.06775224 3.96466413 6.06553465 5.96855359 7 8 C6.67 8.66 6.34 9.32 6 10 C5.54625 9.175 5.0925 8.35 4.625 7.5 C3.820625 6.2625 3.820625 6.2625 3 5 C2.34 5 1.68 5 1 5 C0.34 5.99 -0.32 6.98 -1 8 C-1.04241723 5.66705225 -1.04092937 3.33297433 -1 1 C-0.67 0.67 -0.34 0.34 0 0 Z " fill="#F9D3B9" transform="translate(248,78)"/>
<path d="M0 0 C0.33 0 0.66 0 1 0 C1.00257813 0.67546875 1.00515625 1.3509375 1.0078125 2.046875 C1.05071705 7.20541043 1.05071705 7.20541043 3.40234375 11.5546875 C5.21866453 12.77834208 5.21866453 12.77834208 8 14 C7.01 14.33 6.02 14.66 5 15 C0.6477456 12.34618634 -0.7771055 9.89157798 -2 5 C-1.34 5 -0.68 5 0 5 C0 3.35 0 1.7 0 0 Z " fill="#695570" transform="translate(182,181)"/>
<path d="M0 0 C0.66 0 1.32 0 2 0 C0.40907948 4.13639336 -2.60474918 7.23213248 -6 10 C-6.66 10 -7.32 10 -8 10 C-6.44303593 6.17836093 -3.96591316 3.81381505 -1 1 C-0.67 0.67 -0.34 0.34 0 0 Z " fill="#BF6B93" transform="translate(224,111)"/>
<path d="M0 0 C0.33 0.99 0.66 1.98 1 3 C-0.9375 6.1875 -0.9375 6.1875 -3 9 C-3.66 8.67 -4.32 8.34 -5 8 C-4.75 5.125 -4.75 5.125 -4 2 C-1.9375 0.625 -1.9375 0.625 0 0 Z " fill="#A9E49E" transform="translate(44,201)"/>
<path d="M0 0 C0.99 0.33 1.98 0.66 3 1 C2.01 1.495 2.01 1.495 1 2 C0.07133836 3.48867276 -0.79705336 5.01554706 -1.625 6.5625 C-2.29402344 7.80193359 -2.29402344 7.80193359 -2.9765625 9.06640625 C-3.48316406 10.02353516 -3.48316406 10.02353516 -4 11 C-5.27115705 7.18652885 -4.54905091 5.64026964 -3 2 C-2.01 1.34 -1.02 0.68 0 0 Z " fill="#A8E29E" transform="translate(265,72)"/>
<path d="M0 0 C-1.44077046 3.36179774 -3.24750021 5.59156268 -6 8 C-6.66 8 -7.32 8 -8 8 C-6.48291727 4.46014029 -4.24676932 0 0 0 Z " fill="#6A8EA0" transform="translate(267,88)"/>
<path d="M0 0 C0.99 0 1.98 0 3 0 C2.34 2.97 1.68 5.94 1 9 C-1 7 -1 7 -1.1875 3.9375 C-1 1 -1 1 0 0 Z " fill="#FAF3B4" transform="translate(28,203)"/>
<path d="M0 0 C0.99 0.33 1.98 0.66 3 1 C2.25 6.75 2.25 6.75 0 9 C0 6.03 0 3.06 0 0 Z " fill="#FCF8D6" transform="translate(267,75)"/>
<path d="M0 0 C3 1 3 1 4.25 2.875 C5 5 5 5 4 8 C0 2.25 0 2.25 0 0 Z " fill="#F7AEB1" transform="translate(31,206)"/>
</svg>
